<svg width="1200" height="172" viewBox="0 0 1200 172" fill="none" xmlns="http://www.w3.org/2000/svg">
<path opacity="0.4" d="M367.136 -5.18843C368.407 -6.05727 370.142 -5.22439 370.259 -3.68923L371.817 16.7647C371.934 18.2998 370.345 19.3859 368.957 18.7196L350.464 9.84187C349.076 9.17556 348.93 7.25662 350.201 6.38777L367.136 -5.18843Z" fill="white"/>
<g opacity="0.5" filter="url(#filter0_f_21_1053)">
<path d="M595.462 104.605C594.191 103.736 592.456 104.569 592.339 106.104L591.756 113.761C591.639 115.296 593.228 116.382 594.616 115.716L601.538 112.392C602.926 111.726 603.073 109.807 601.802 108.938L595.462 104.605Z" fill="white"/>
</g>
<path opacity="0.5" d="M68.2235 130.845C71.1978 131.642 72.194 135.36 70.0166 137.537L10.5363 197.017C8.35898 199.195 4.64114 198.199 3.84418 195.224L-17.9271 113.973C-18.7241 110.998 -16.0024 108.277 -13.0282 109.074L68.2235 130.845Z" fill="#065FE5"/>
<path opacity="0.3" d="M822.36 46.982C819.693 48.5216 816.36 46.5971 816.36 43.5179L816.36 -21.3469C816.36 -24.4261 819.693 -26.3506 822.36 -24.811L878.535 7.6214C881.201 9.161 881.201 13.01 878.535 14.5496L822.36 46.982Z" fill="#065FE5"/>
<g opacity="0.6" filter="url(#filter1_f_21_1053)">
<path d="M263.455 145.398C264.895 144.852 266.386 146.07 266.139 147.589L261.024 179.054C260.777 180.574 258.978 181.256 257.785 180.283L233.093 160.121C231.9 159.147 232.209 157.248 233.649 156.702L263.455 145.398Z" fill="#66B9FB"/>
</g>
<path opacity="0.6" d="M856.323 154.772C855.924 153.285 857.285 151.924 858.772 152.322L876.748 157.139C878.235 157.538 878.733 159.396 877.645 160.485L864.485 173.644C863.397 174.733 861.538 174.235 861.139 172.748L856.323 154.772Z" fill="#66B9FB"/>
<path opacity="0.1" d="M1165.3 62.0494C1164.18 62.307 1163.31 63.1807 1163.05 64.2996L1144.27 145.867C1143.59 148.803 1147.18 150.792 1149.31 148.661L1249.66 48.311C1251.79 46.1802 1249.8 42.5899 1246.87 43.2662L1165.3 62.0494Z" fill="white"/>
<path opacity="0.1" d="M61.2414 -12.0093C60.1225 -11.7516 59.2488 -10.8779 58.9911 -9.75903L48.9803 33.7133C48.3041 36.6498 51.8944 38.6386 54.0251 36.5078L107.508 -16.9753C109.639 -19.1061 107.65 -22.6963 104.714 -22.0201L61.2414 -12.0093Z" fill="white"/>
<defs>
<filter id="filter0_f_21_1053" x="588.75" y="101.253" width="16.9238" height="17.6628" filterUnits="userSpaceOnUse" color-interpolation-filters="sRGB">
<feFlood flood-opacity="0" result="BackgroundImageFix"/>
<feBlend mode="normal" in="SourceGraphic" in2="BackgroundImageFix" result="shape"/>
<feGaussianBlur stdDeviation="1.5" result="effect1_foregroundBlur_21_1053"/>
</filter>
<filter id="filter1_f_21_1053" x="228.357" y="141.266" width="41.8086" height="43.47" filterUnits="userSpaceOnUse" color-interpolation-filters="sRGB">
<feFlood flood-opacity="0" result="BackgroundImageFix"/>
<feBlend mode="normal" in="SourceGraphic" in2="BackgroundImageFix" result="shape"/>
<feGaussianBlur stdDeviation="2" result="effect1_foregroundBlur_21_1053"/>
</filter>
</defs>
</svg>
