<svg width="20" height="8" viewBox="0 0 20 8" fill="none" xmlns="http://www.w3.org/2000/svg">
<path d="M0.572266 3.5C0.296123 3.5 0.0722656 3.72386 0.0722656 4C0.0722656 4.27614 0.296123 4.5 0.572266 4.5V3.5ZM18.885 4.35355C19.0803 4.15829 19.0803 3.84171 18.885 3.64645L15.703 0.464466C15.5078 0.269204 15.1912 0.269204 14.9959 0.464466C14.8007 0.659728 14.8007 0.976311 14.9959 1.17157L17.8243 4L14.9959 6.82843C14.8007 7.02369 14.8007 7.34027 14.9959 7.53553C15.1912 7.7308 15.5078 7.7308 15.703 7.53553L18.885 4.35355ZM0.572266 4.5H18.5314V3.5H0.572266V4.5Z" fill="white"/>
</svg>
