<svg width="80" height="80" viewBox="0 0 80 80" fill="none" xmlns="http://www.w3.org/2000/svg">
<path d="M52.2782 37.1172C51.7508 37.6389 51.7508 38.4907 52.2782 39.0125L53.06 39.786C53.5794 40.2999 54.4157 40.2999 54.9351 39.786C55.4624 39.2643 55.4624 38.4125 54.9351 37.8907L54.1532 37.1172C53.6338 36.6033 52.7976 36.6033 52.2782 37.1172Z" fill="white"/>
<path d="M52.2782 29.1781C51.7508 28.6564 51.7508 27.8046 52.2782 27.2829L53.06 26.5093C53.5794 25.9955 54.4157 25.9955 54.9351 26.5093C55.4624 27.031 55.4624 27.8829 54.9351 28.4046L54.1532 29.1781C53.6338 29.692 52.7976 29.692 52.2782 29.1781Z" fill="white"/>
<path d="M54.9333 31.8217C54.201 31.8217 53.6074 32.4153 53.6074 33.1476C53.6074 33.8798 54.201 34.4734 54.9333 34.4734H56.302C57.0343 34.4734 57.6279 33.8798 57.6279 33.1476C57.6279 32.4153 57.0343 31.8217 56.302 31.8217H54.9333Z" fill="white"/>
<path d="M41.5575 28.4051C41.0301 27.8834 41.0301 27.0315 41.5575 26.5098C42.0769 25.9959 42.9131 25.9959 43.4325 26.5098L44.2144 27.2834C44.7417 27.8051 44.7417 28.6569 44.2144 29.1786C43.695 29.6925 42.8587 29.6925 42.3393 29.1786L41.5575 28.4051Z" fill="white"/>
<path d="M48.2464 23.8664C47.5063 23.8664 46.9062 24.4664 46.9062 25.2065V26.5038C46.9062 27.244 47.5063 27.844 48.2464 27.844C48.9866 27.844 49.5866 27.244 49.5866 26.5038V25.2065C49.5866 24.4664 48.9866 23.8664 48.2464 23.8664Z" fill="white"/>
<path d="M68.3483 30.3641V46.5398C66.4218 46.9873 64.9141 48.4789 64.4618 50.3849H58.9528C58.2206 50.3849 57.627 50.9785 57.627 51.7107C57.627 52.443 58.2206 53.0366 58.9528 53.0366H67.0081V51.545C67.0081 50.1694 68.1305 49.059 69.5209 49.059H71.0286V27.8449H69.5209C68.1305 27.8449 67.0081 26.7345 67.0081 25.359V23.8673H58.9528C58.2206 23.8673 57.627 24.461 57.627 25.1932C57.627 25.9255 58.2206 26.5191 58.9528 26.5191H64.4618C64.9141 28.425 66.4218 29.9166 68.3483 30.3641Z" fill="white"/>
<path d="M33.8906 45.4611L36.1856 43.2071L36.1858 39.7765H38.8661V44.301L35.8004 47.3505L33.8906 45.4611Z" fill="white"/>
<path fill-rule="evenodd" clip-rule="evenodd" d="M76.3895 54.2124C77.5957 54.6268 78.6008 55.4223 79.2541 56.4996C79.3546 56.6653 79.4548 56.8468 79.5218 57.0126C80.7446 59.6809 79.5385 62.8133 76.8582 64.0066L45.0296 78.2267C42.4499 79.4034 39.6356 80 36.7877 80C35.3637 80 33.9398 79.8509 32.5494 79.5525L20.1025 76.9173L20.065 76.911C19.9805 76.8968 19.9055 76.8841 19.8178 76.8841H14.5073C13.9377 78.4752 12.43 79.5359 10.7213 79.5359H8.04099C6.34901 79.5359 4.82456 78.4752 4.25499 76.8841H1.32588C0.593616 76.8841 0 76.2905 0 75.5583C0 74.826 0.593617 74.2324 1.32588 74.2324H4.0205V59.6477H1.32588C0.593617 59.6477 0 59.0541 0 58.3218C0 57.5896 0.593618 56.9959 1.32588 56.9959H4.0205C4.0205 55.8524 4.50631 54.7751 5.36066 54.0293V51.6924C5.36066 50.7146 5.71246 49.7699 6.38254 49.0407C5.7292 48.3115 5.36066 47.3667 5.36066 46.3889V43.7372C5.36066 42.7593 5.71246 41.8146 6.38254 41.0854C7.87342 39.4612 10.403 39.3286 12.0615 40.7871V22.5399C12.0615 20.3522 13.8706 18.5623 16.082 18.5623H24.123V5.81735L33.5041 1.17677L37.5246 3.16559V1.34017C37.5246 0.600013 38.1246 0 38.8648 0C39.6049 0 40.2049 0.600013 40.2049 1.34017V4.49147L42.8853 5.81735V18.5623H48.2459V15.9105C46.7718 15.9105 45.5656 14.7173 45.5656 13.2588V11.7174C45.5656 10.6567 45.9844 9.64572 46.7382 8.89991L47.1068 8.5353L49.0166 3.8285C49.6197 2.32026 51.1106 1.32585 52.7523 1.32585H59.8385C61.4802 1.32585 62.9543 2.32021 63.5574 3.81183L65.4672 8.51863L65.8357 8.88324C66.5896 9.62906 67.0084 10.6401 67.0084 11.7008V13.2586C67.0084 14.7171 65.8022 15.9104 64.328 15.9104V18.5622H72.369C74.5804 18.5622 76.3895 20.352 76.3895 22.5398V54.2124ZM54.947 3.97809H52.7357C52.1996 3.97809 51.6971 4.30958 51.4961 4.80677L50.223 7.9557H62.3515L61.0784 4.80677C60.8773 4.30956 60.3915 3.97809 59.8387 3.97809H57.6274V5.30397H54.947V3.97809ZM48.6315 10.7567C48.3802 11.0053 48.2462 11.3533 48.2462 11.7014L48.2462 13.2592H64.3282V11.7014C64.3282 11.3368 64.1941 11.0053 63.9429 10.7567L63.7753 10.5909H48.799L48.6315 10.7567ZM61.6479 15.911H50.9265V18.5628H61.6479V15.911ZM33.5044 4.1272L26.8036 7.44189V18.5628H29.4839V9.28161H37.5249V18.5628H40.2052V7.44189L33.5044 4.1272ZM32.1642 18.5628H34.8446V11.9334H32.1642V18.5628ZM72.3692 21.2145H16.0822C15.3452 21.2145 14.7421 21.811 14.7421 22.5402V39.9918C15.1776 39.8426 15.6299 39.7598 16.0822 39.7598H17.4224V27.8269H18.9301C20.3205 27.8269 21.4429 26.7165 21.4429 25.3409V23.8493H29.4982C30.2304 23.8493 30.824 24.4429 30.824 25.1751C30.824 25.9074 30.2304 26.501 29.4982 26.501H23.9892C23.5369 28.4069 22.0292 29.8986 20.1027 30.3461V39.9918C20.6053 40.1741 21.0576 40.4393 21.4429 40.7873C22.1799 40.1409 23.1348 39.7763 24.1232 39.7763H26.8035C27.5071 39.7763 28.2107 39.9586 28.8138 40.3067C30.6566 35.7324 35.7995 33.3789 40.5068 34.9535L44.2257 31.2742L46.2359 33.263L47.6952 31.8193C48.2139 31.3061 49.0491 31.3061 49.5679 31.8193C50.0945 32.3403 50.0945 33.1911 49.5679 33.7121L48.1289 35.1358L50.1391 37.1246L46.4202 40.8039C47.643 44.3837 46.5207 48.3447 43.6225 50.7977C45.6161 51.6264 46.906 53.549 46.906 55.6869H68.9016L72.8047 54.2616C73.1063 54.1456 73.4078 54.0627 73.7094 54.013V22.5404C73.7094 21.8112 73.1063 21.2145 72.3692 21.2145ZM61.6816 58.3391H46.1862C45.2312 59.9799 43.4559 60.9908 41.5461 60.9908H33.5052L38.6816 64.8194C39.7704 65.6315 41.2111 65.8469 42.4843 65.3663L61.6816 58.3391ZM13.4018 54.0466C14.1724 54.7261 14.6415 55.6873 14.7252 56.7149C15.7638 56.4 16.7186 55.8367 17.5059 55.0743L19.4995 53.102C21.2584 51.3617 23.6372 50.3839 26.1332 50.3839H30.9914C30.0533 49.489 29.3162 48.3951 28.8304 47.2018C28.2273 47.5498 27.5238 47.7321 26.8202 47.7321H24.1398C23.1515 47.7321 22.1966 47.3841 21.4595 46.7211C20.7225 47.3675 19.7675 47.7321 18.7792 47.7321H16.0988C15.0938 47.7321 14.1389 47.3675 13.4018 46.7046C13.3348 47.5829 12.9663 48.4116 12.3799 49.058C13.0333 49.7871 13.4018 50.7319 13.4018 51.7097V54.0466ZM20.1026 43.7545C20.1026 43.0252 19.4995 42.4286 18.7624 42.4286H16.0821C15.345 42.4286 14.7419 43.0252 14.7419 43.7545C14.7419 44.4837 15.345 45.0803 16.0821 45.0803H18.7624C19.4995 45.0803 20.1026 44.4837 20.1026 43.7545ZM24.1231 42.4286C23.386 42.4286 22.7829 43.0252 22.7829 43.7545C22.7829 44.4837 23.386 45.0803 24.1231 45.0803H26.8034C27.5405 45.0803 28.1436 44.4837 28.1436 43.7545C28.1436 43.0252 27.5405 42.4286 26.8034 42.4286H24.1231ZM37.5247 37.1251C33.8225 37.1251 30.8239 40.0917 30.8239 43.7545C30.8239 47.4172 33.8225 50.3839 37.5247 50.3839C41.227 50.3839 44.2256 47.4172 44.2256 43.7545C44.2256 40.0917 41.227 37.1251 37.5247 37.1251ZM45.1301 38.3349L46.353 37.1251L44.2254 35.0202L43.0025 36.23C43.8234 36.8103 44.5438 37.5228 45.1301 38.3349ZM9.38126 42.4286C8.64417 42.4286 8.0411 43.0252 8.0411 43.7545V46.4062C8.0411 47.1355 8.64417 47.7321 9.38126 47.7321C10.1184 47.7321 10.7214 47.1355 10.7214 46.4062V43.7545C10.7214 43.0252 10.1184 42.4286 9.38126 42.4286ZM9.38126 50.3839C8.64417 50.3839 8.0411 50.9805 8.0411 51.7097V53.0356H10.7214V51.7097C10.7214 50.9805 10.1184 50.3839 9.38126 50.3839ZM10.7214 76.9014C11.4585 76.9014 12.0616 76.3048 12.0616 75.5756V57.0132C12.0616 56.284 11.4585 55.6874 10.7214 55.6874H8.0411C7.30401 55.6874 6.70093 56.284 6.70093 57.0132V75.5756C6.70093 76.3048 7.30401 76.9014 8.0411 76.9014H10.7214ZM75.7698 61.6044C76.4566 61.3062 76.9927 60.7095 77.2105 59.9969C77.445 59.2842 77.3443 58.5051 76.9423 57.8422C76.2889 56.7649 74.9487 56.3008 73.7426 56.7317L69.6885 58.2234V58.3394H69.387L43.4046 67.8525C41.2603 68.6481 38.8816 68.3 37.0556 66.941L29.0313 60.991H26.789C26.0567 60.991 25.4631 60.3974 25.4631 59.6652C25.4631 58.9329 26.0567 58.3393 26.789 58.3393H41.5451C43.0193 58.3393 44.2254 57.146 44.2254 55.6875C44.2254 54.2291 43.0193 53.0358 41.5451 53.0358H26.1171C24.3413 53.0358 22.6327 53.7319 21.3763 54.9749L19.3827 56.9472C18.1095 58.2068 16.5013 59.0687 14.7424 59.4498V74.25H19.835C20.1198 74.25 20.3878 74.2666 20.6726 74.3328L33.1195 76.9681C36.7546 77.7471 40.5573 77.3492 43.9413 75.8245L75.7698 61.6044Z" fill="white"/>
</svg>
