<svg width="1199" height="172" viewBox="0 0 1199 172" fill="none" xmlns="http://www.w3.org/2000/svg">
<path opacity="0.4" d="M818.859 92.8122C817.721 93.8486 815.887 93.2637 815.559 91.7595L811.703 74.0849C811.374 72.5807 812.798 71.2853 814.264 71.7532L831.499 77.2509C832.966 77.7188 833.376 79.599 832.238 80.6353L818.859 92.8122Z" fill="white" fill-opacity="0.61"/>
<g opacity="0.5" filter="url(#filter0_f_25_2137)">
<path d="M595.462 104.605C594.191 103.736 592.456 104.569 592.339 106.104L591.756 113.761C591.639 115.296 593.228 116.382 594.616 115.716L601.538 112.393C602.926 111.726 603.073 109.807 601.802 108.938L595.462 104.605Z" fill="white" fill-opacity="0.61"/>
</g>
<path opacity="0.3" d="M208.053 -28.1845C210.481 -30.0782 214.049 -28.6333 214.475 -25.5837L222.487 31.7739C222.913 34.8235 219.878 37.1906 217.024 36.0347L163.344 14.2947C160.49 13.1388 159.958 9.32681 162.386 7.43309L208.053 -28.1845Z" fill="#065FE5"/>
<path opacity="0.6" d="M1201.21 165.737C1201.81 167.155 1200.65 168.691 1199.12 168.502L1182.89 166.496C1181.36 166.307 1180.61 164.534 1181.54 163.306L1191.39 150.252C1192.32 149.023 1194.23 149.259 1194.83 150.677L1201.21 165.737Z" fill="#F9FDFF"/>
<path opacity="0.1" d="M39.8074 148.756C39.718 149.901 40.2898 150.997 41.2801 151.578L106.16 189.645C108.759 191.17 111.732 188.341 110.338 185.67L51.3152 72.6069C49.9208 69.9356 45.8996 70.7574 45.6649 73.7616L39.8074 148.756Z" fill="#F9FDFF"/>
<path opacity="0.1" d="M1095.54 60.6534C1096.61 60.2434 1097.36 59.2573 1097.46 58.1135L1100.92 18.682C1101.18 15.6802 1097.35 14.2072 1095.54 16.6122L1055.1 70.1775C1053.29 72.5825 1055.75 75.8631 1058.57 74.7872L1095.54 60.6534Z" fill="#F9FDFF"/>
<defs>
<filter id="filter0_f_25_2137" x="588.75" y="101.253" width="16.9238" height="17.6626" filterUnits="userSpaceOnUse" color-interpolation-filters="sRGB">
<feFlood flood-opacity="0" result="BackgroundImageFix"/>
<feBlend mode="normal" in="SourceGraphic" in2="BackgroundImageFix" result="shape"/>
<feGaussianBlur stdDeviation="1.5" result="effect1_foregroundBlur_25_2137"/>
</filter>
</defs>
</svg>
